<svg width="461.10751953125px" height="120.8099609375px" xmlns="http://www.w3.org/2000/svg" viewBox="19.44624023437501 14.595019531250003 461.10751953125 120.8099609375" style="background:#596886" preserveAspectRatio="xMidYMid"><defs><filter id="editing-hover" x="-100%" y="-100%" width="300%" height="300%"><feFlood flood-color="#052b4a" result="flood"></feFlood><feComposite operator="in" in2="SourceAlpha" in="flood" result="shadow"></feComposite><feOffset dx="-4" dy="-4" in="SourceGraphic" result="offset-1"></feOffset><feOffset dx="4" dy="4" in="shadow" result="offset-2"></feOffset><feMerge><feMergeNode in="offset-2"></feMergeNode><feMergeNode in="offset-1"></feMergeNode></feMerge></filter></defs><g filter="url(#editing-hover)"><g transform="translate(86.73499917984009, 99)"><path d="M6.21-31.17L6.21-31.17L6.21-31.17Q4.03-32.83 4.03-36.38L4.03-36.38L4.03-36.38Q4.03-39.94 6.37-41.79L6.37-41.79L6.37-41.79Q8.70-43.65 12.74-43.65L12.74-43.65L12.74-43.65Q15.30-43.65 21.38-42.75L21.38-42.75L25.73-42.11L25.73-42.11Q27.90-41.86 30.18-41.86L30.18-41.86L30.18-41.86Q32.45-41.86 33.98-42.82L33.98-42.82L33.98-42.82Q36.29-40.77 36.29-37.82L36.29-37.82L36.29-37.82Q36.29-34.88 33.66-32.77L33.66-32.77L33.66-32.77Q30.98-30.53 27.52-30.53L27.52-30.53L27.52-30.53Q25.86-30.53 23.17-30.98L23.17-30.98L23.17-30.98Q20.03-21.12 20.03-14.27L20.03-14.27L20.03-14.27Q20.03-7.42 23.49-3.84L23.49-3.84L23.49-3.84Q21.89-0.96 19.52 0.16L19.52 0.16L19.52 0.16Q17.15 1.28 13.60 1.28L13.60 1.28L13.60 1.28Q10.05 1.28 7.84-0.67L7.84-0.67L7.84-0.67Q5.63-2.62 5.63-6.66L5.63-6.66L5.63-6.66Q5.63-11.33 8.19-19.01L8.19-19.01L8.19-19.01Q10.75-26.62 14.59-32.45L14.59-32.45L14.59-32.45Q12.74-32.64 10.82-32.64L10.82-32.64L10.82-32.64Q6.85-32.64 6.21-31.17ZM49.60-3.52L49.60-3.52L49.60-3.52Q47.62 1.28 41.28 1.28L41.28 1.28L41.28 1.28Q38.02 1.28 35.97-0.96L35.97-0.96L35.97-0.96Q34.24-2.94 34.24-4.93L34.24-4.93L34.24-4.93Q34.24-10.11 36.61-20.22L36.61-20.22L38.98-32.64L51.97-33.92L48.06-13.70L48.06-13.70Q46.98-8.96 46.98-7.30L46.98-7.30L46.98-7.30Q46.98-3.65 49.60-3.52ZM40.13-41.54L40.13-41.54L40.13-41.54Q40.13-44.03 42.21-45.38L42.21-45.38L42.21-45.38Q44.29-46.72 47.30-46.72L47.30-46.72L47.30-46.72Q50.30-46.72 52.13-45.38L52.13-45.38L52.13-45.38Q53.95-44.03 53.95-41.54L53.95-41.54L53.95-41.54Q53.95-39.04 51.94-37.76L51.94-37.76L51.94-37.76Q49.92-36.48 46.91-36.48L46.91-36.48L46.91-36.48Q43.90-36.48 42.02-37.76L42.02-37.76L42.02-37.76Q40.13-39.04 40.13-41.54ZM101.12 1.28L101.12 1.28L101.12 1.28Q93.38 1.28 93.38-4.74L93.38-4.74L93.38-4.74Q93.38-7.36 94.50-12.45L94.50-12.45L94.50-12.45Q95.62-17.54 96-19.58L96-19.58L96-19.58Q96.90-24.26 96.90-25.73L96.90-25.73L96.90-25.73Q96.90-28.99 94.46-28.99L94.46-28.99L94.46-28.99Q92.86-28.99 91.33-26.78L91.33-26.78L91.33-26.78Q89.79-24.58 89.09-20.16L89.09-20.16L85.12 0L72.64 1.28L76.10-16.13L76.10-16.13Q76.67-19.01 77.18-22.27L77.18-22.27L77.18-22.27Q77.70-25.54 77.70-26.05L77.70-26.05L77.70-26.05Q77.70-28.99 75.52-28.99L75.52-28.99L75.52-28.99Q74.05-28.99 72.45-26.82L72.45-26.82L72.45-26.82Q70.85-24.64 69.95-20.16L69.95-20.16L66.05 0L53.44 1.28L60.16-32.64L70.59-33.92L69.50-27.46L69.50-27.46Q71.17-30.91 74.24-32.42L74.24-32.42L74.24-32.42Q77.31-33.92 82.11-33.92L82.11-33.92L82.11-33.92Q84.86-33.92 86.66-32.58L86.66-32.58L86.66-32.58Q88.45-31.23 89.02-29.06L89.02-29.06L89.02-29.06Q90.11-31.30 92.90-32.61L92.90-32.61L92.90-32.61Q95.68-33.92 99.10-33.92L99.10-33.92L99.10-33.92Q102.53-33.92 104.22-33.18L104.22-33.18L104.22-33.18Q105.92-32.45 106.94-31.23L106.94-31.23L106.94-31.23Q108.67-28.99 108.67-24.90L108.67-24.90L108.67-24.90Q108.67-20.86 106.94-12.48L106.94-12.48L106.94-12.48Q106.05-8.38 106.05-6.88L106.05-6.88L106.05-6.88Q106.05-5.38 106.91-4.48L106.91-4.48L106.91-4.48Q107.78-3.58 109.06-3.46L109.06-3.46L109.06-3.46Q108.42-1.28 106.21 0L106.21 0L106.21 0Q104 1.28 101.12 1.28ZM139.90-10.82L139.90-10.82L139.90-10.82Q141.50-9.73 141.50-7.33L141.50-7.33L141.50-7.33Q141.50-4.93 140.29-3.39L140.29-3.39L140.29-3.39Q139.07-1.86 137.09-0.83L137.09-0.83L137.09-0.83Q132.99 1.28 128.58 1.28L128.58 1.28L128.58 1.28Q124.16 1.28 121.57 0.32L121.57 0.32L121.57 0.32Q118.98-0.64 117.25-2.43L117.25-2.43L117.25-2.43Q113.86-5.82 113.86-12.03L113.86-12.03L113.86-12.03Q113.86-21.70 119.10-27.58L119.10-27.58L119.10-27.58Q124.74-33.92 134.53-33.92L134.53-33.92L134.53-33.92Q140.61-33.92 143.62-31.36L143.62-31.36L143.62-31.36Q145.86-29.44 145.86-26.30L145.86-26.30L145.86-26.30Q145.86-15.04 126.40-15.04L126.40-15.04L126.40-15.04Q126.14-13.38 126.14-11.97L126.14-11.97L126.14-11.97Q126.14-9.02 127.46-7.90L127.46-7.90L127.46-7.90Q128.77-6.78 131.20-6.78L131.20-6.78L131.20-6.78Q133.63-6.78 136.22-7.90L136.22-7.90L136.22-7.90Q138.82-9.02 139.90-10.82ZM126.85-17.79L126.85-17.79L126.85-17.79Q131.39-17.79 134.02-20.61L134.02-20.61L134.02-20.61Q136.64-23.30 136.64-27.58L136.64-27.58L136.64-27.58Q136.64-29.06 136.10-29.86L136.10-29.86L136.10-29.86Q135.55-30.66 134.46-30.66L134.46-30.66L134.46-30.66Q133.38-30.66 132.45-30.24L132.45-30.24L132.45-30.24Q131.52-29.82 130.56-28.42L130.56-28.42L130.56-28.42Q128.19-25.22 126.85-17.79ZM152.70-31.17L152.70-31.17L152.70-31.17Q150.53-32.83 150.53-36.38L150.53-36.38L150.53-36.38Q150.53-39.94 152.86-41.79L152.86-41.79L152.86-41.79Q155.20-43.65 159.23-43.65L159.23-43.65L159.23-43.65Q161.79-43.65 167.87-42.75L167.87-42.75L172.22-42.11L172.22-42.11Q174.40-41.86 176.67-41.86L176.67-41.86L176.67-41.86Q178.94-41.86 180.48-42.82L180.48-42.82L180.48-42.82Q182.78-40.77 182.78-37.82L182.78-37.82L182.78-37.82Q182.78-34.88 180.16-32.77L180.16-32.77L180.16-32.77Q177.47-30.53 174.02-30.53L174.02-30.53L174.02-30.53Q172.35-30.53 169.66-30.98L169.66-30.98L169.66-30.98Q166.53-21.12 166.53-14.27L166.53-14.27L166.53-14.27Q166.53-7.42 169.98-3.84L169.98-3.84L169.98-3.84Q168.38-0.96 166.02 0.16L166.02 0.16L166.02 0.16Q163.65 1.28 160.10 1.28L160.10 1.28L160.10 1.28Q156.54 1.28 154.34-0.67L154.34-0.67L154.34-0.67Q152.13-2.62 152.13-6.66L152.13-6.66L152.13-6.66Q152.13-11.33 154.69-19.01L154.69-19.01L154.69-19.01Q157.25-26.62 161.09-32.45L161.09-32.45L161.09-32.45Q159.23-32.64 157.31-32.64L157.31-32.64L157.31-32.64Q153.34-32.64 152.70-31.17ZM200.38-17.98L200.38-17.98L200.38-17.98Q202.69-22.08 202.69-26.24L202.69-26.24L202.69-26.24Q202.69-28.99 200.70-28.99L200.70-28.99L200.70-28.99Q199.17-28.99 197.57-26.37L197.57-26.37L197.57-26.37Q195.90-23.74 195.39-20.35L195.39-20.35L192.06 0L178.82 1.28L185.34-32.64L195.90-33.92L194.75-27.46L194.75-27.46Q197.89-33.92 204.93-33.92L204.93-33.92L204.93-33.92Q208.64-33.92 210.66-32L210.66-32L210.66-32Q212.67-30.08 212.67-26.14L212.67-26.14L212.67-26.14Q212.67-22.21 210.08-19.71L210.08-19.71L210.08-19.71Q207.49-17.22 203.07-17.22L203.07-17.22L203.07-17.22Q201.15-17.22 200.38-17.98ZM216.48-1.92L216.48-1.92L216.48-1.92Q214.98-3.58 214.30-6.21L214.30-6.21L214.30-6.21Q213.63-8.83 213.63-13.12L213.63-13.12L213.63-13.12Q213.63-17.41 215.10-21.31L215.10-21.31L215.10-21.31Q216.58-25.22 219.26-28.03L219.26-28.03L219.26-28.03Q224.77-33.92 233.86-33.92L233.86-33.92L233.86-33.92Q237.12-33.92 239.49-32.83L239.49-32.83L250.43-33.92L245.70-8.96L245.70-8.96Q245.50-8.19 245.50-6.78L245.50-6.78L245.50-6.78Q245.50-5.38 246.37-4.48L246.37-4.48L246.37-4.48Q247.23-3.58 248.51-3.46L248.51-3.46L248.51-3.46Q247.87-1.28 245.54 0L245.54 0L245.54 0Q243.20 1.28 240.58 1.28L240.58 1.28L240.58 1.28Q237.95 1.28 236.19 0.29L236.19 0.29L236.19 0.29Q234.43-0.70 233.92-2.37L233.92-2.37L233.92-2.37Q232.90-0.77 230.72 0.26L230.72 0.26L230.72 0.26Q228.54 1.28 225.63 1.28L225.63 1.28L225.63 1.28Q222.72 1.28 220.35 0.51L220.35 0.51L220.35 0.51Q217.98-0.26 216.48-1.92ZM229.98-27.90L229.98-27.90L229.98-27.90Q229.25-26.75 228.61-24.80L228.61-24.80L228.61-24.80Q227.97-22.85 226.91-17.63L226.91-17.63L226.91-17.63Q225.86-12.42 225.86-8.70L225.86-8.70L225.86-8.70Q225.86-4.99 226.43-3.90L226.43-3.90L226.43-3.90Q227.01-2.82 228.03-2.82L228.03-2.82L228.03-2.82Q230.08-2.82 231.58-4.77L231.58-4.77L231.58-4.77Q233.09-6.72 233.66-10.18L233.66-10.18L237.06-28.93L237.06-28.93Q235.71-30.08 234.14-30.08L234.14-30.08L234.14-30.08Q232.58-30.08 231.65-29.57L231.65-29.57L231.65-29.57Q230.72-29.06 229.98-27.90ZM285.06-26.62L285.06-26.62L285.06-26.62Q285.06-23.94 282.82-22.27L282.82-22.27L282.82-22.27Q280.58-20.61 276.93-20.61L276.93-20.61L276.93-20.61Q275.39-20.61 274.50-21.06L274.50-21.06L274.50-21.06Q275.20-22.72 275.42-24.80L275.42-24.80L275.42-24.80Q275.65-26.88 275.65-27.46L275.65-27.46L275.65-27.46Q275.65-30.14 273.79-30.14L273.79-30.14L273.79-30.14Q272.51-30.14 271.07-28.54L271.07-28.54L271.07-28.54Q269.63-26.94 268.42-24.45L268.42-24.45L268.42-24.45Q265.73-18.69 265.73-12.86L265.73-12.86L265.73-12.86Q265.73-9.66 266.94-8.22L266.94-8.22L266.94-8.22Q268.16-6.78 270.85-6.78L270.85-6.78L270.85-6.78Q274.56-6.78 277.50-9.86L277.50-9.86L277.50-9.86Q278.34-10.82 278.78-11.90L278.78-11.90L278.78-11.90Q281.22-10.62 281.22-7.10L281.22-7.10L281.22-7.10Q281.22-3.52 277.25-1.15L277.25-1.15L277.25-1.15Q273.15 1.28 266.62 1.28L266.62 1.28L266.62 1.28Q253.63 1.28 253.63-12.48L253.63-12.48L253.63-12.48Q253.63-22.53 259.33-28.29L259.33-28.29L259.33-28.29Q264.83-33.92 274.94-33.92L274.94-33.92L274.94-33.92Q285.06-33.92 285.06-26.62ZM303.30-30.34L303.30-30.34L303.30-30.34Q306.75-33.92 314.05-33.92L314.05-33.92L314.05-33.92Q318.08-33.92 320.29-31.78L320.29-31.78L320.29-31.78Q322.50-29.63 322.50-25.70L322.50-25.70L322.50-25.70Q322.50-21.76 320.29-18.98L320.29-18.98L320.29-18.98Q318.08-16.19 313.98-15.04L313.98-15.04L313.98-15.04Q314.30-13.76 314.75-12.42L314.75-12.42L315.65-9.86L315.65-9.86Q316.86-6.59 317.82-5.44L317.82-5.44L317.82-5.44Q318.78-4.29 320.06-3.90L320.06-3.90L320.06-3.90Q319.36-1.28 316.80 0.13L316.80 0.13L316.80 0.13Q314.75 1.28 311.94 1.28L311.94 1.28L311.94 1.28Q303.68 1.28 302.59-11.46L302.59-11.46L302.59-11.46Q302.40-13.25 302.40-15.04L302.40-15.04L302.40-15.04Q305.60-15.94 307.84-18.94L307.84-18.94L307.84-18.94Q310.08-21.95 310.08-25.47L310.08-25.47L310.08-25.47Q310.08-28.99 307.58-28.99L307.58-28.99L307.58-28.99Q305.79-28.99 304.38-27.01L304.38-27.01L304.38-27.01Q302.98-25.02 302.34-21.63L302.34-21.63L298.11 0L285.18 1.28L294.14-44.80L307.01-46.08L305.54-38.46L305.54-38.46Q304.58-33.09 303.30-30.34Z" fill="#ffd5af"></path></g></g><style>text {
  font-size: 64px;
  font-family: Arial Black;
  dominant-baseline: central;
  text-anchor: middle;
}</style></svg>